<?xml version="1.0" encoding="utf-8"?>
<!-- Generator: Adobe Illustrator 17.0.0, SVG Export Plug-In . SVG Version: 6.00 Build 0)  -->
<!DOCTYPE svg PUBLIC "-//W3C//DTD SVG 1.1//EN" "http://www.w3.org/Graphics/SVG/1.1/DTD/svg11.dtd">
<svg version="1.1" id="Layer_1" xmlns="http://www.w3.org/2000/svg" xmlns:xlink="http://www.w3.org/1999/xlink" x="0px" y="0px"
	 width="22.612px" height="21.038px" viewBox="0 0 22.612 21.038" enable-background="new 0 0 22.612 21.038" xml:space="preserve">
<g>
	<path fill="#FCF5B6" d="M10.979,16.568c0.043,0.043,0.094,0.077,0.151,0.1c0.056,0.023,0.116,0.035,0.176,0.035
		c0.06,0,0.12-0.012,0.176-0.035c0.057-0.024,0.108-0.057,0.151-0.1l6.157-6.157c0.18-0.18,0.18-0.473,0-0.653
		c-0.18-0.18-0.473-0.18-0.653,0l-5.369,5.369V0.462C11.768,0.207,11.561,0,11.306,0c-0.255,0-0.462,0.207-0.462,0.462v14.665
		L5.475,9.758c-0.18-0.18-0.473-0.18-0.653,0c-0.18,0.18-0.18,0.473,0,0.653L10.979,16.568z"/>
	<path fill="#FCF5B6" d="M22.15,14.668h-7.214l-0.924,0.924h7.675v4.985H0.924v-4.985h7.547l-0.924-0.924H0.462
		C0.207,14.668,0,14.874,0,15.13v5.909C0,21.294,0.207,21.5,0.462,21.5H22.15c0.255,0,0.462-0.207,0.462-0.462V15.13
		C22.612,14.874,22.406,14.668,22.15,14.668z"/>
</g>
</svg>
