<?xml version="1.0" encoding="utf-8"?>
<!-- Generator: Adobe Illustrator 17.0.0, SVG Export Plug-In . SVG Version: 6.00 Build 0)  -->
<!DOCTYPE svg PUBLIC "-//W3C//DTD SVG 1.1//EN" "http://www.w3.org/Graphics/SVG/1.1/DTD/svg11.dtd">
<svg version="1.1" id="Layer_1" xmlns="http://www.w3.org/2000/svg" xmlns:xlink="http://www.w3.org/1999/xlink" x="0px" y="0px"
	 width="37px" height="22.5px" viewBox="0 0 37 22.5" enable-background="new 0 0 37 22.5" xml:space="preserve">
<g>
	<g>
		<path fill="#FCF5B6" d="M0.5,22.5c-0.085,0-0.17-0.021-0.247-0.065C0.097,22.346,0,22.18,0,22V0.5c0-0.18,0.097-0.346,0.253-0.434
			c0.156-0.09,0.348-0.087,0.503,0.005l18,10.75c0.151,0.091,0.244,0.254,0.244,0.43c0,0.176-0.093,0.339-0.244,0.43l-18,10.75
			C0.677,22.477,0.589,22.5,0.5,22.5z M1,1.381v19.738l16.524-9.869L1,1.381z"/>
	</g>
	<g>
		<path fill="#FCF5B6" d="M18.499,22.5c-0.085,0-0.17-0.021-0.247-0.065c-0.157-0.089-0.253-0.255-0.253-0.435V0.5
			c0-0.18,0.097-0.346,0.253-0.434c0.156-0.09,0.348-0.087,0.503,0.005l18,10.75c0.151,0.091,0.244,0.254,0.244,0.43
			c0,0.176-0.093,0.339-0.244,0.43l-18,10.75C18.677,22.477,18.588,22.5,18.499,22.5z M18.999,1.381v19.738l16.525-9.869
			L18.999,1.381z"/>
	</g>
</g>
</svg>
