<?xml version="1.0" encoding="utf-8"?>
<!-- Generator: Adobe Illustrator 17.0.0, SVG Export Plug-In . SVG Version: 6.00 Build 0)  -->
<!DOCTYPE svg PUBLIC "-//W3C//DTD SVG 1.1//EN" "http://www.w3.org/Graphics/SVG/1.1/DTD/svg11.dtd">
<svg version="1.1" id="Layer_1" xmlns="http://www.w3.org/2000/svg" xmlns:xlink="http://www.w3.org/1999/xlink" x="0px" y="0px"
	 width="19px" height="22.5px" viewBox="0 0 19 22.5" enable-background="new 0 0 19 22.5" xml:space="preserve">
<g>
	<path fill="#1D1C1A" d="M7.605,22.506H4.134c-0.276,0-0.5-0.224-0.5-0.5V0.494c0-0.276,0.224-0.5,0.5-0.5h3.471
		c0.276,0,0.5,0.224,0.5,0.5v21.512C8.105,22.282,7.881,22.506,7.605,22.506z M4.634,21.506h2.471V0.994H4.634V21.506z"/>
</g>
<g>
	<path fill="#1D1C1A" d="M14.866,22.506h-3.471c-0.276,0-0.5-0.224-0.5-0.5V0.494c0-0.276,0.224-0.5,0.5-0.5h3.471
		c0.276,0,0.5,0.224,0.5,0.5v21.512C15.366,22.282,15.142,22.506,14.866,22.506z M11.895,21.506h2.471V0.994h-2.471V21.506z"/>
</g>
</svg>
