<?xml version="1.0" encoding="utf-8"?>
<!-- Generator: Adobe Illustrator 17.0.0, SVG Export Plug-In . SVG Version: 6.00 Build 0)  -->
<!DOCTYPE svg PUBLIC "-//W3C//DTD SVG 1.1//EN" "http://www.w3.org/Graphics/SVG/1.1/DTD/svg11.dtd">
<svg version="1.1" id="Layer_1" xmlns="http://www.w3.org/2000/svg" xmlns:xlink="http://www.w3.org/1999/xlink" x="0px" y="0px"
	 width="37.383px" height="22.435px" viewBox="0 0 37.383 22.435" enable-background="new 0 0 37.383 22.435" xml:space="preserve">
<g>
	<g>
		<path fill="#FCF5B6" d="M36.883,22.5c-0.089,0-0.177-0.023-0.256-0.07l-18-10.75c-0.151-0.091-0.244-0.254-0.244-0.43
			c0-0.176,0.093-0.339,0.244-0.43l18-10.75c0.155-0.092,0.347-0.095,0.503-0.005c0.157,0.089,0.253,0.255,0.253,0.434V22
			c0,0.18-0.097,0.346-0.253,0.435C37.053,22.479,36.968,22.5,36.883,22.5z M19.858,11.25l16.525,9.869V1.381L19.858,11.25z"/>
	</g>
	<g>
		<path fill="#FCF5B6" d="M18.883,22.5c-0.089,0-0.177-0.023-0.256-0.07l-18-10.75c-0.151-0.091-0.244-0.254-0.244-0.43
			c0-0.176,0.093-0.339,0.244-0.43l18-10.75c0.155-0.092,0.347-0.095,0.503-0.005c0.157,0.089,0.253,0.255,0.253,0.434V22
			c0,0.18-0.097,0.346-0.253,0.435C19.053,22.479,18.968,22.5,18.883,22.5z M1.858,11.25l16.525,9.869V1.381L1.858,11.25z"/>
	</g>
</g>
</svg>
