<?xml version="1.0" encoding="utf-8"?>
<!-- Generator: Adobe Illustrator 17.0.0, SVG Export Plug-In . SVG Version: 6.00 Build 0)  -->
<!DOCTYPE svg PUBLIC "-//W3C//DTD SVG 1.1//EN" "http://www.w3.org/Graphics/SVG/1.1/DTD/svg11.dtd">
<svg version="1.1" id="Layer_1" xmlns="http://www.w3.org/2000/svg" xmlns:xlink="http://www.w3.org/1999/xlink" x="0px" y="0px"
	 width="21.462px" height="21.202px" viewBox="0 0 21.462 21.202" enable-background="new 0 0 21.462 21.202" xml:space="preserve">
<g>
	<path fill="#3c3c3c" d="M21.016,14.237c-0.267,0-0.483,0.216-0.483,0.483v5.133l-8.364-8.339l-0.682,0.682l8.364,8.34h-5.132
		c-0.267,0-0.483,0.216-0.483,0.483c0,0.267,0.216,0.483,0.483,0.483h6.297c0.063,0,0.125-0.013,0.184-0.037
		c0.118-0.049,0.212-0.143,0.261-0.261c0.024-0.059,0.037-0.121,0.037-0.184v-6.298C21.499,14.453,21.283,14.237,21.016,14.237z"/>
	<path fill="#3c3c3c" d="M21.462,0.298c-0.049-0.118-0.143-0.212-0.261-0.261C21.142,0.013,21.079,0,21.016,0h-6.297
		c-0.267,0-0.483,0.216-0.483,0.483c0,0.267,0.216,0.483,0.483,0.483h5.132l-9.102,9.102L0.824,0.141
		c-0.188-0.189-0.494-0.189-0.682,0s-0.188,0.494,0,0.683l9.926,9.926l-9.926,9.926c-0.188,0.189-0.188,0.494,0,0.682
		C0.236,21.453,0.359,21.5,0.483,21.5s0.247-0.047,0.341-0.141l19.71-19.711v5.133c0,0.267,0.216,0.483,0.483,0.483
		c0.267,0,0.483-0.216,0.483-0.483V0.483C21.499,0.42,21.486,0.357,21.462,0.298z"/>
</g>
</svg>
