<?xml version="1.0" encoding="utf-8"?>
<!-- Generator: Adobe Illustrator 17.0.0, SVG Export Plug-In . SVG Version: 6.00 Build 0)  -->
<!DOCTYPE svg PUBLIC "-//W3C//DTD SVG 1.1//EN" "http://www.w3.org/Graphics/SVG/1.1/DTD/svg11.dtd">
<svg version="1.1" id="Layer_1" xmlns="http://www.w3.org/2000/svg" xmlns:xlink="http://www.w3.org/1999/xlink" x="0px" y="0px"
	 width="16.49px" height="15.255px" viewBox="0 0 16.49 15.255" enable-background="new 0 0 16.49 15.255" xml:space="preserve">
<g>
	<g>
		<path fill="#FCF5B6" d="M9.735,15.255c-0.085,0-0.168-0.036-0.226-0.102l-2.96-3.351c-0.224-0.254-0.547-0.399-0.885-0.399H0.301
			C0.135,11.403,0,11.268,0,11.102V4.319c0-0.167,0.135-0.301,0.301-0.301h5.215c0.339,0,0.661-0.145,0.885-0.399l3.108-3.517
			c0.083-0.094,0.216-0.126,0.332-0.082c0.117,0.045,0.195,0.157,0.195,0.282v14.652c0,0.125-0.077,0.238-0.195,0.282
			C9.807,15.248,9.771,15.255,9.735,15.255z M0.603,10.801h5.061c0.511,0,0.998,0.22,1.337,0.603l2.433,2.754V1.098l-2.581,2.92
			C6.515,4.401,6.027,4.621,5.516,4.621H0.603V10.801z"/>
	</g>
	<g>
		<path fill="#FCF5B6" d="M11.368,9.499c-0.167,0-0.301-0.135-0.301-0.301V6.057c0-0.167,0.135-0.301,0.301-0.301
			s0.301,0.135,0.301,0.301v3.141C11.669,9.364,11.534,9.499,11.368,9.499z"/>
	</g>
	<g>
		<path fill="#FCF5B6" d="M12.648,10.643c-0.167,0-0.301-0.135-0.301-0.301V4.913c0-0.166,0.135-0.301,0.301-0.301
			c0.167,0,0.301,0.135,0.301,0.301v5.428C12.95,10.508,12.815,10.643,12.648,10.643z"/>
	</g>
	<g>
		<path fill="#FCF5B6" d="M13.929,11.968c-0.167,0-0.301-0.135-0.301-0.301V3.588c0-0.167,0.135-0.301,0.301-0.301
			c0.167,0,0.301,0.135,0.301,0.301v8.079C14.23,11.833,14.095,11.968,13.929,11.968z"/>
	</g>
	<g>
		<path fill="#FCF5B6" d="M15.21,13.414c-0.167,0-0.301-0.135-0.301-0.301V2.142c0-0.167,0.135-0.301,0.301-0.301
			c0.167,0,0.301,0.135,0.301,0.301v10.97C15.511,13.279,15.376,13.414,15.21,13.414z"/>
	</g>
	<g>
		<path fill="#FCF5B6" d="M16.49,15.255c-0.167,0-0.301-0.135-0.301-0.301V0.301C16.189,0.135,16.324,0,16.49,0
			c0.167,0,0.301,0.135,0.301,0.301v14.652C16.792,15.12,16.657,15.255,16.49,15.255z"/>
	</g>
</g>
</svg>
